# xmcd CD database file
#
# Track frame offsets:
#	150
#	21238
#	35280
#	56367
#
# Disc length: 935 seconds
#
# Revision: 0
# Processed by: cddbd v1.5.1PL2 Copyright (c) Steve Scherf et al.
# Submitted via: CDex 1.50
#
DISCID=2703a504
DTITLE=as - sky
DYEAR=2006
DGENRE=JPop
TTITLE0=sky
TTITLE1=のほほん
TTITLE2=sky-instrumental-
TTITLE3=のほほん-instrumental-
EXTD=YEAR: 2006
EXTT0=
EXTT1=
EXTT2=
EXTT3=
PLAYORDER=
